/* XPM */
static const char * CloseAll_xpm[] = {
"16 16 193 2",
"  	c None",
". 	c #4A5EBB",
"+ 	c #4F63BF",
"@ 	c #4F63C0",
"# 	c #5064C0",
"$ 	c #5063C0",
"% 	c #5063BF",
"& 	c #4F62BF",
"* 	c #4F61BE",
"= 	c #4E61BE",
"- 	c #4A5DBA",
"; 	c #5577D1",
"> 	c #5376D1",
", 	c #587AD4",
"' 	c #5C7BD6",
") 	c #5E7BD7",
"! 	c #5E7BD6",
"~ 	c #5D79D4",
"{ 	c #5B76D2",
"] 	c #5872CE",
"^ 	c #546DCA",
"/ 	c #5068C4",
"( 	c #4C62BF",
"_ 	c #475CBA",
": 	c #4B5DBA",
"< 	c #5276D1",
"[ 	c #5578D2",
"} 	c #5879D5",
"| 	c #5B7AD6",
"1 	c #5B79D5",
"2 	c #5A77D3",
"3 	c #5874D0",
"4 	c #5570CD",
"5 	c #526BC9",
"6 	c #4E66C2",
"7 	c #4960BD",
"8 	c #445AB8",
"9 	c #3F53B2",
"0 	c #3D50AF",
"a 	c #4E60BD",
"b 	c #495DB9",
"c 	c #566CC8",
"d 	c #576CC8",
"e 	c #586CC9",
"f 	c #586CC8",
"g 	c #576BC8",
"h 	c #576AC7",
"i 	c #5669C5",
"j 	c #5568C4",
"k 	c #5467C2",
"l 	c #5365C1",
"m 	c #5163C0",
"n 	c #5062BE",
"o 	c #4F60BD",
"p 	c #485BB7",
"q 	c #9799A6",
"r 	c #D6DAEA",
"s 	c #D5D9EA",
"t 	c #D4D8EA",
"u 	c #D4D8E9",
"v 	c #D3D8E9",
"w 	c #D3D7E9",
"x 	c #D2D7E8",
"y 	c #D2D6E8",
"z 	c #D1D6E8",
"A 	c #D1D5E8",
"B 	c #D0D5E8",
"C 	c #CFD4E7",
"D 	c #8B8D9A",
"E 	c #A4A5A8",
"F 	c #F1F3F9",
"G 	c #EBEEF7",
"H 	c #EAEDF7",
"I 	c #E8ECF6",
"J 	c #E7EBF6",
"K 	c #E5E9F5",
"L 	c #E3E8F5",
"M 	c #E2E7F4",
"N 	c #E0E5F3",
"O 	c #DEE3F3",
"P 	c #DCE2F2",
"Q 	c #DAE0F1",
"R 	c #D9DFF1",
"S 	c #969699",
"T 	c #A4A4A7",
"U 	c #F0F2F9",
"V 	c #E9EDF7",
"W 	c #E6EAF6",
"X 	c #E4E9F5",
"Y 	c #E1E6F4",
"Z 	c #EEF1F9",
"` 	c #EDF0F8",
" .	c #DBE1F2",
"..	c #D9E0F1",
"+.	c #D8DEF0",
"@.	c #EFF1F9",
"#.	c #959598",
"$.	c #A3A3A7",
"%.	c #EEF1F8",
"&.	c #E6EBF6",
"*.	c #DFE5F3",
"=.	c #EEF0F9",
"-.	c #B47279",
";.	c #B9575B",
">.	c #EAEEF8",
",.	c #D7DDF0",
"'.	c #E9ECF7",
").	c #AF5459",
"!.	c #B0757B",
"~.	c #C7C7C9",
"{.	c #A2A3A6",
"].	c #ECEFF7",
"^.	c #E4E8F5",
"/.	c #E0E5F4",
"(.	c #DEE4F3",
"_.	c #B37279",
":.	c #D75555",
"<.	c #E26363",
"[.	c #B55458",
"}.	c #E8ECF7",
"|.	c #AF5257",
"1.	c #D24646",
"2.	c #CD4343",
"3.	c #8E5253",
"4.	c #A1A2A5",
"5.	c #EAEEF7",
"6.	c #DFE4F3",
"7.	c #DDE3F2",
"8.	c #DCE1F2",
"9.	c #EBEFF8",
"0.	c #B4565B",
"a.	c #D95A5A",
"b.	c #E66F6F",
"c.	c #E96868",
"d.	c #BE3F40",
"e.	c #D95151",
"f.	c #D04545",
"g.	c #9C3F40",
"h.	c #A0A1A4",
"i.	c #DAE1F1",
"j.	c #D7DEF0",
"k.	c #B05357",
"l.	c #E36464",
"m.	c #F07676",
"n.	c #ED6B6B",
"o.	c #DB5555",
"p.	c #D14747",
"q.	c #AA4C4F",
"r.	c #C5C5C7",
"s.	c #9FA0A3",
"t.	c #E6EAF5",
"u.	c #D6DDF0",
"v.	c #D5DCEF",
"w.	c #D3DAEF",
"x.	c #BE3F41",
"y.	c #F17474",
"z.	c #EB6C6C",
"A.	c #DF5858",
"B.	c #B4393A",
"C.	c #ECF0F8",
"D.	c #919194",
"E.	c #99999D",
"F.	c #E3E8F4",
"G.	c #E1E6F3",
"H.	c #EEF0F8",
"I.	c #B15558",
"J.	c #D04747",
"K.	c #AA5153",
"L.	c #C3C3C4",
"M.	c #97989B",
"N.	c #9B9C9F",
"O.	c #9A9A9D",
"P.	c #99999C",
"Q.	c #98989B",
"R.	c #C9C9CA",
"S.	c #A14344",
"T.	c #D85A5A",
"U.	c #E86868",
"V.	c #B53A3A",
"W.	c #D85050",
"X.	c #CE4545",
"Y.	c #913031",
"Z.	c #8B2323",
"`.	c #D35454",
" +	c #E16363",
".+	c #A12C2C",
"++	c #962727",
"@+	c #CF4545",
"#+	c #C94242",
"$+	c #802020",
"%+	c #872222",
"&+	c #A02B2B",
"*+	c #922626",
"  . + @ # # # # $ $ % & * = -   ",
". ; > , ' ) ! ~ { ] ^ / ( _ : - ",
"@ < [ } | 1 2 3 4 5 6 7 8 9 0 a ",
"b c d e e f g h i j k l m n o p ",
"q r s s t u v w x y z A B C A D ",
"E F G H I J K L M N O P Q R M S ",
"T U V J W X M Y Z `  ...+.V @.#.",
"$.%.&.K L Y *.=.-.;.>.,.'.).!.~.",
"{.].^.M /.(.` _.:.<.[.}.|.1.2.3.",
"4.5.Y 6.7.8.9.0.a.b.c.d.e.2.f.g.",
"h.I (.P i.R j.'.k.l.m.n.o.p.q.r.",
"s.t. ...+.u.v.w.J x.y.z.A.B.C.D.",
"E.G F.M G.N 6.H.I.l.m.n.o.J.K.L.",
"  M.N.O.P.Q.R.S.T.b.U.V.W.2.X.Y.",
"              Z.`. +.+  ++@+#+$+",
"                %+&+      *+$+  "};
