/* XPM */
static const char * FasterAnimation_xpm[] = {
"16 16 63 1",
" 	c None",
".	c #0C70A8",
"+	c #0D71A8",
"@	c #0D73AD",
"#	c #0A6EA6",
"$	c #0E76B0",
"%	c #0D74AE",
"&	c #096FA7",
"*	c #08699F",
"=	c #1179B3",
"-	c #0F77B2",
";	c #0970A8",
">	c #076BA2",
",	c #127BB5",
"'	c #127CB6",
")	c #0F78B2",
"!	c #076BA3",
"~	c #05669E",
"{	c #147EB9",
"]	c #127DB6",
"^	c #05669F",
"/	c #036197",
"(	c #157FB9",
"_	c #1580BB",
":	c #076BA4",
"<	c #03639A",
"[	c #025C90",
"}	c #1378B0",
"|	c #1377AD",
"1	c #1274AA",
"2	c #1076AD",
"3	c #0F77B1",
"4	c #0769A0",
"5	c #055F93",
"6	c #035B8E",
"7	c #02588A",
"8	c #0D6291",
"9	c #076499",
"0	c #033D5E",
"a	c #1071A6",
"b	c #07699F",
"c	c #045380",
"d	c #127CB5",
"e	c #046093",
"f	c #137AB2",
"g	c #1480BA",
"h	c #036298",
"i	c #137BB3",
"j	c #1681BC",
"k	c #1580BC",
"l	c #02639B",
"m	c #015E94",
"n	c #1271A5",
"o	c #0F608E",
"p	c #0D5F8C",
"q	c #0C5C89",
"r	c #0A5A86",
"s	c #095782",
"t	c #07547E",
"u	c #05517B",
"v	c #044E78",
"w	c #024B76",
"x	c #014973",
"                ",
"       .        ",
"      +@#       ",
"      $%&*      ",
"     =-%;>      ",
"    ,')%;!~     ",
"    {])%;!^/    ",
"   (_])%;:^<[   ",
"  }|123%;4567   ",
"     83%;90     ",
"     a)%;bc     ",
"    d')%;!~e    ",
"   fg])%;:^h    ",
"  ijk])%;:^lm   ",
"  nopqrstuvwx   ",
"                "};
