/* XPM */
static char * Help_xpm[] = {
"16 16 137 2",
"  	c None",
". 	c #3869C8",
"+ 	c #2F61C3",
"@ 	c #2F60C0",
"# 	c #2E5FBE",
"$ 	c #3766C0",
"% 	c #3668CA",
"& 	c #4D7BD1",
"* 	c #7EA4E4",
"= 	c #9CBDF0",
"- 	c #A5C5F5",
"; 	c #7EA2E0",
"> 	c #4B76C6",
", 	c #2E5CB5",
"' 	c #3567C9",
") 	c #769DE2",
"! 	c #A0C2F4",
"~ 	c #7FABEF",
"{ 	c #6B9DEC",
"] 	c #6599EB",
"^ 	c #6A9DEC",
"/ 	c #A0C1F4",
"( 	c #7398D8",
"_ 	c #2F5BB0",
": 	c #769DE1",
"< 	c #96BBF2",
"[ 	c #6498EA",
"} 	c #A6C4F3",
"| 	c #EAF1FC",
"1 	c #FDFDFE",
"2 	c #F0F5FD",
"3 	c #B8D0F5",
"4 	c #689AEA",
"5 	c #96BAF2",
"6 	c #7599D7",
"7 	c #2B55A8",
"8 	c #4C7AD0",
"9 	c #9EBFF1",
"0 	c #6194E6",
"a 	c #588EE5",
"b 	c #9EBDEF",
"c 	c #C6D8F5",
"d 	c #C0D4F4",
"e 	c #FBFCFE",
"f 	c #FFFFFF",
"g 	c #99BAEF",
"h 	c #9DBFF1",
"i 	c #486FB9",
"j 	c #3768C7",
"k 	c #7EA2E2",
"l 	c #77A2E7",
"m 	c #5389E0",
"n 	c #DEE8F9",
"o 	c #9BBAEC",
"p 	c #76A1E7",
"q 	c #7D9ED8",
"r 	c #23468A",
"s 	c #97B6EA",
"t 	c #5C8DDD",
"u 	c #4E82DA",
"v 	c #9BB8EA",
"w 	c #E3EBF9",
"x 	c #5688DB",
"y 	c #5C8CDD",
"z 	c #97B6E8",
"A 	c #264E9C",
"B 	c #9BB9EA",
"C 	c #5182D6",
"D 	c #487BD3",
"E 	c #6D96DC",
"F 	c #EBF1FA",
"G 	c #5C8AD8",
"H 	c #5181D5",
"I 	c #9CB9EA",
"J 	c #264E9B",
"K 	c #92B0E4",
"L 	c #5280D1",
"M 	c #4274CD",
"N 	c #9EB7E5",
"O 	c #A6BEE7",
"P 	c #507FD1",
"Q 	c #93B0E2",
"R 	c #244A96",
"S 	c #3462BD",
"T 	c #7799D7",
"U 	c #658DD4",
"V 	c #3C6DC6",
"W 	c #5681CE",
"X 	c #8DAADE",
"Y 	c #4F7BCB",
"Z 	c #638CD3",
"` 	c #7695CD",
" .	c #1C3A75",
"..	c #4771C1",
"+.	c #8CAADF",
"@.	c #416EC3",
"#.	c #3666BF",
"$.	c #D5DFF2",
"%.	c #BBCBE9",
"&.	c #406EC3",
"*.	c #8BA9DE",
"=.	c #4366AA",
"-.	c #2C58AE",
";.	c #6B8DCD",
">.	c #7D9DD7",
",.	c #3C69BE",
"'.	c #3160BA",
").	c #A5BAE0",
"!.	c #F9FBFD",
"~.	c #8DA7D9",
"{.	c #3B69BE",
"].	c #6A89C3",
"^.	c #1F4080",
"/.	c #2953A4",
"(.	c #6A8BCA",
"_.	c #88A5DA",
":.	c #5B81C8",
"<.	c #3E6ABD",
"[.	c #3865BA",
"}.	c #3E6ABC",
"|.	c #5A81C8",
"1.	c #6988C2",
"2.	c #23478C",
"3.	c #244B96",
"4.	c #4168B3",
"5.	c #6F8FC9",
"6.	c #89A6D8",
"7.	c #8EAADC",
"8.	c #6E8DC6",
"9.	c #3F63A7",
"0.	c #1F3F80",
"a.	c #1D3C79",
"b.	c #254D9A",
"c.	c #254D9B",
"d.	c #244A94",
"e.	c #1B3871",
"f.	c #0E1D3B",
"          . + @ # $             ",
"      % & * = - = ; > ,         ",
"    ' ) ! ~ { ] ^ ~ / ( _       ",
"  ' : < [ } | 1 2 3 4 5 6 7     ",
"  8 9 0 a b c d e f g 0 h i     ",
"j k l m m m m m n f o m p q r   ",
"+ s t u u u u v f w x u y z A   ",
"@ B C D D D E 1 F G D D H I J   ",
"# K L M M M N f O M M M P Q R   ",
"S T U V V V W X Y V V V Z `  .  ",
"  ..+.@.#.#.$.f %.#.#.&.*.=.    ",
"  -.;.>.,.'.).!.~.'.{.>.].^.    ",
"    /.(._.:.<.[.}.|._.1.2.      ",
"      3.4.5.6.7.6.8.9.0.        ",
"          a.b.c.d.e.f.          ",
"                                "};
