/* XPM */
static const char * NewScript_xpm[] = {
"16 16 132 2",
"  	c None",
". 	c #6868C8",
"+ 	c #6667C4",
"@ 	c #6565C0",
"# 	c #6363BC",
"$ 	c #6262B8",
"% 	c #6060B4",
"& 	c #5E5EAF",
"* 	c #5C5CAB",
"= 	c #5A5AA7",
"- 	c #5858A2",
"; 	c #56569F",
"> 	c #54549B",
", 	c #535398",
"' 	c #6A6ACA",
") 	c #9798F0",
"! 	c #9B9BF4",
"~ 	c #9797F2",
"{ 	c #9393EF",
"] 	c #8F90EC",
"^ 	c #8C8CEA",
"/ 	c #8888E7",
"( 	c #8585E5",
"_ 	c #8383E3",
": 	c #8081E1",
"< 	c #8080E1",
"[ 	c #7B7BD9",
"} 	c #535396",
"| 	c #6969CA",
"1 	c #9E9FF6",
"2 	c #535397",
"3 	c #6B6BCA",
"4 	c #6969C6",
"5 	c #6868C3",
"6 	c #6566BF",
"7 	c #6464BB",
"8 	c #6262B7",
"9 	c #6060B2",
"0 	c #5E5EAE",
"a 	c #5C5CAA",
"b 	c #5A5AA5",
"c 	c #57579E",
"d 	c #55559C",
"e 	c #535496",
"f 	c #99A1C0",
"g 	c #F3F3FA",
"h 	c #ECEEFB",
"i 	c #EBEDFB",
"j 	c #EAECFA",
"k 	c #E9EBF9",
"l 	c #E8EAF9",
"m 	c #E7E9F9",
"n 	c #E6E8F9",
"o 	c #E5E7F8",
"p 	c #E5E6F8",
"q 	c #E4E5F8",
"r 	c #E2E4F7",
"s 	c #EFEFF7",
"t 	c #8890A1",
"u 	c #A2ACBF",
"v 	c #FAFAFD",
"w 	c #F1F4FE",
"x 	c #F1F3FD",
"y 	c #F0F2FD",
"z 	c #EFF1FD",
"A 	c #EEF0FD",
"B 	c #EDEFFD",
"C 	c #ECEEFD",
"D 	c #ECEDFD",
"E 	c #EAECFD",
"F 	c #E9EBFC",
"G 	c #E9EAFC",
"H 	c #F7F7FC",
"I 	c #88909F",
"J 	c #F8F9FC",
"K 	c #F0F1FD",
"L 	c #EBEDFD",
"M 	c #EAECFC",
"N 	c #E8E9FC",
"O 	c #E6E7FB",
"P 	c #F6F6FC",
"Q 	c #878F9E",
"R 	c #F7F8FB",
"S 	c #EDEEFD",
"T 	c #EBECFD",
"U 	c #E7E8FB",
"V 	c #E5E6FB",
"W 	c #E2E3FA",
"X 	c #F5F5FC",
"Y 	c #F6F7FA",
"Z 	c #E4E5FA",
"` 	c #E1E2FA",
" .	c #DFE0F9",
"..	c #F4F4FB",
"+.	c #A1ABBE",
"@.	c #F5F6FA",
"#.	c #EAEBFC",
"$.	c #E8E9FB",
"%.	c #E3E3FA",
"&.	c #E1E1F9",
"*.	c #DEDFF9",
"=.	c #DDDDF9",
"-.	c #F3F3FB",
";.	c #A0AABD",
">.	c #F4F4F9",
",.	c #E2E2FA",
"'.	c #E0E0F9",
").	c #DDDEF9",
"!.	c #DCDCF9",
"~.	c #DADBF9",
"{.	c #9EA7BA",
"].	c #F5F5FA",
"^.	c #E3E4FA",
"/.	c #E1E1FA",
"(.	c #DFDFF9",
"_.	c #DBDBF9",
":.	c #DADAF9",
"<.	c #9BA4B7",
"[.	c #F4F5F8",
"}.	c #F8F8FC",
"|.	c #F7F8FC",
"1.	c #F4F4FC",
"2.	c #F1F1F6",
"3.	c #848C9C",
"4.	c #9CA4B4",
"5.	c #939CAE",
"6.	c #9099AA",
"7.	c #8D95A6",
"8.	c #8992A2",
"9.	c #878F9F",
"0.	c #838B9B",
"a.	c #545963",
"                                ",
"  . + @ # $ % & * = - ; > ,     ",
"' ) ! ~ { ] ^ / ( _ : < < [ }   ",
"| 1 ! ~ { ] ^ / ( _ : < < < 2   ",
"| 3 4 5 6 7 8 9 0 a b - c d e   ",
"f g h i j k l m n o p q r s t   ",
"u v w x y z A B C D E F G H I   ",
"u J y K z A B D L M G N O P Q   ",
"u R K A B S D T F G U V W X Q   ",
"u Y A B C L M F N O Z `  ...Q   ",
"+.@.B D T #.G $.V %.&.*.=.-.Q   ",
";.>.D M F N U Z ,.'.).!.~.-.Q   ",
"{.].M G $.O ^./.(.=._.:.:.-.Q   ",
"<.[.}.|.H P P X X 1.1.1.1.2.3.  ",
"4.5.6.7.8.9.3.3.3.3.3.3.3.0.a.  ",
"                                "};
