/* XPM */
static char * RunMission_xpm[] = {
"16 16 60 1",
" 	c None",
".	c #2F70C8",
"+	c #2E6EC8",
"@	c #71AAEE",
"#	c #4B87D7",
"$	c #7AAEEB",
"%	c #3E7DD2",
"&	c #91C3FB",
"*	c #9ECBFA",
"=	c #9ECCFA",
"-	c #4D8AD9",
";	c #73A8EA",
">	c #4281D6",
",	c #8ABCF8",
"'	c #92C0F8",
")	c #4D8AD8",
"!	c #6BA1E8",
"~	c #3F7FD5",
"{	c #7EB2F6",
"]	c #83B4F5",
"^	c #83B4F4",
"/	c #4D89D9",
"(	c #649BE6",
"_	c #3C7CD4",
":	c #72A9F3",
"<	c #76AAF1",
"[	c #75AAF1",
"}	c #4C89D9",
"|	c #5591E1",
"1	c #3778D3",
"2	c #5F9CEC",
"3	c #609AEA",
"4	c #609AE9",
"5	c #3171C9",
"6	c #296FCC",
"7	c #2C7CD4",
"8	c #2676CE",
"9	c #2369C6",
"0	c #3379C0",
"a	c #2D7CD7",
"b	c #2777D2",
"c	c #2677D2",
"d	c #2B75D3",
"e	c #2972D0",
"f	c #445EB0",
"g	c #2D7FDD",
"h	c #277BD8",
"i	c #267BD8",
"j	c #2A78C2",
"k	c #2D83E2",
"l	c #277FDF",
"m	c #2A75D3",
"n	c #2870CE",
"o	c #3188EA",
"p	c #2883E5",
"q	c #2267C5",
"r	c #3485E5",
"s	c #2A74D3",
"t	c #2B76D4",
"u	c #2368C6",
"                ",
"  .             ",
" +@#$           ",
" %&*=-;         ",
" >,'''')!       ",
" ~{]]]]^]/(     ",
" _:<<<<[<<<}|   ",
" 1233334333335  ",
" 6788888888889  ",
" 0abbbbcbbbde   ",
" fghhhhihdd     ",
" jkllllmd       ",
" noppdd         ",
" qrst           ",
"  u             ",
"                "};
