/* XPM */
static const char * SaveMission_xpm[] = {
"16 16 124 2",
"  	c None",
". 	c #6D76AA",
"+ 	c #6973A7",
"@ 	c #6973A6",
"# 	c #B3B3B3",
"$ 	c #5E6795",
"% 	c #6872A6",
"& 	c #626A9B",
"* 	c #C4BDF1",
"= 	c #6873A6",
"- 	c #E8E9ED",
"; 	c #E9EBED",
"> 	c #EFF0F2",
", 	c #F7F7F7",
"' 	c #FDFCFB",
") 	c #FEFDFC",
"! 	c #F9F9F8",
"~ 	c #5E6792",
"{ 	c #A092E9",
"] 	c #59608C",
"^ 	c #B2A8EF",
"/ 	c #6771A4",
"( 	c #B2B2C3",
"_ 	c #A8A7BB",
": 	c #ACAABD",
"< 	c #AEACBF",
"[ 	c #AFADC0",
"} 	c #B9B7C7",
"| 	c #F0F0F1",
"1 	c #5C6590",
"2 	c #9181E4",
"3 	c #565E87",
"4 	c #B1A7EE",
"5 	c #6670A2",
"6 	c #E5E6E9",
"7 	c #5B638D",
"8 	c #8F7FE2",
"9 	c #B0A6ED",
"0 	c #656FA0",
"a 	c #B6B5C5",
"b 	c #AAA8BB",
"c 	c #AAA8BC",
"d 	c #A8A6BA",
"e 	c #A4A2B7",
"f 	c #AAAABC",
"g 	c #DBDEE2",
"h 	c #59628B",
"i 	c #8D7EDF",
"j 	c #AFA5EC",
"k 	c #636D9E",
"l 	c #D8DBE0",
"m 	c #586089",
"n 	c #8B7CDC",
"o 	c #AEA4EA",
"p 	c #626B9C",
"q 	c #575F87",
"r 	c #8979DA",
"s 	c #565D87",
"t 	c #ADA3E9",
"u 	c #646B9F",
"v 	c #5F6896",
"w 	c #5D6694",
"x 	c #5C6591",
"y 	c #5A638E",
"z 	c #59618C",
"A 	c #58608A",
"B 	c #565F88",
"C 	c #555D86",
"D 	c #595F8C",
"E 	c #8878D8",
"F 	c #ACA2E7",
"G 	c #8F7FE1",
"H 	c #8E7EE0",
"I 	c #8D7DDF",
"J 	c #8C7CDD",
"K 	c #8B7BDC",
"L 	c #8A7ADB",
"M 	c #8978D9",
"N 	c #8777D7",
"O 	c #8676D6",
"P 	c #AAA0E5",
"Q 	c #8C7DDE",
"R 	c #6C73AC",
"S 	c #6872A5",
"T 	c #6A72A9",
"U 	c #8576D4",
"V 	c #8475D3",
"W 	c #A89EE2",
"X 	c #8A7BDC",
"Y 	c #656EA0",
"Z 	c #CDCED0",
"` 	c #C7C7C8",
" .	c #DADBDD",
"..	c #E7E9EC",
"+.	c #EAEBED",
"@.	c #7E8085",
"#.	c #646E9F",
"$.	c #8474D2",
"%.	c #8374D2",
"&.	c #837DCB",
"*.	c #8979D9",
"=.	c #606998",
"-.	c #CECFD3",
";.	c #888888",
">.	c #B2B4BC",
",.	c #D6DBE7",
"'.	c #E5E8EF",
").	c #74777E",
"!.	c #5F6897",
"~.	c #8273D1",
"{.	c #626B9B",
"].	c #726CB5",
"^.	c #5B6391",
"/.	c #CACCD0",
"(.	c #B0B1B3",
"_.	c #C7CAD2",
":.	c #D7DCE8",
"<.	c #E4E7EF",
"[.	c #72757C",
"}.	c #5A638F",
"|.	c #525A81",
"1.	c #565E88",
"2.	c #555D85",
"3.	c #424867",
"                                ",
"  . + @ # # # # # # # # $ % &   ",
"  + * = - - ; > , ' ) ! ~ { ]   ",
"  + ^ / - ( _ : < [ } | 1 2 3   ",
"  + 4 5 ; > , ' ) ! | 6 7 8 3   ",
"  + 9 0 > a b c d e f g h i 3   ",
"  + j k , ' ) ! | 6 g l m n 3   ",
"  + o p ' ) ! | 6 g l l q r s   ",
"  + t u v w x y z A B C D E s   ",
"  + F G H I J K L r M E N O s   ",
"  + P Q R S S S S S S T U V s   ",
"  + W X Y Z `  ...+.@.#.$.%.s   ",
"  + &.*.=.-.;.>.,.'.).!.~.~.s   ",
"    {.].^./.(._.:.<.[.}.~.~.s   ",
"      |.3 1.1.1.1.1.1.3 2.2.3.  ",
"                                "};
