/* XPM */
static char * SlowerAnimation_xpm[] = {
"16 16 63 1",
" 	c None",
".	c #1271A5",
"+	c #0F608E",
"@	c #0D5F8C",
"#	c #0C5C89",
"$	c #0A5A86",
"%	c #095782",
"&	c #07547E",
"*	c #05517B",
"=	c #044E78",
"-	c #024B76",
";	c #014973",
">	c #137BB3",
",	c #1681BC",
"'	c #1580BC",
")	c #127DB6",
"!	c #0F78B2",
"~	c #0D74AE",
"{	c #0970A8",
"]	c #076BA4",
"^	c #05669F",
"/	c #02639B",
"(	c #015E94",
"_	c #137AB2",
":	c #1480BA",
"<	c #036298",
"[	c #127CB5",
"}	c #127CB6",
"|	c #076BA3",
"1	c #05669E",
"2	c #046093",
"3	c #1071A6",
"4	c #07699F",
"5	c #045380",
"6	c #0D6291",
"7	c #0F77B1",
"8	c #076499",
"9	c #033D5E",
"0	c #1378B0",
"a	c #1377AD",
"b	c #1274AA",
"c	c #1076AD",
"d	c #0769A0",
"e	c #055F93",
"f	c #035B8E",
"g	c #02588A",
"h	c #157FB9",
"i	c #1580BB",
"j	c #03639A",
"k	c #025C90",
"l	c #147EB9",
"m	c #036197",
"n	c #127BB5",
"o	c #1179B3",
"p	c #0F77B2",
"q	c #076BA2",
"r	c #0E76B0",
"s	c #096FA7",
"t	c #08699F",
"u	c #0D71A8",
"v	c #0D73AD",
"w	c #0A6EA6",
"x	c #0C70A8",
"                ",
"  .+@#$%&*=-;   ",
"  >,')!~{]^/(   ",
"   _:)!~{]^<    ",
"    [}!~{|12    ",
"     3!~{45     ",
"     67~{89     ",
"  0abc7~{defg   ",
"   hi)!~{]^jk   ",
"    l)!~{|^m    ",
"    n}!~{|1     ",
"     op~{q      ",
"      r~st      ",
"      uvw       ",
"       x        ",
"                "};
