/* XPM */
static const char * StopMission_xpm[] = {
"16 16 78 1",
" 	c None",
".	c #2F70C8",
"+	c #4280D3",
"@	c #4B88D8",
"#	c #4B88D7",
"$	c #4381D3",
"%	c #3171C9",
"&	c #2E6EC8",
"*	c #71AAEE",
"=	c #9ACBFC",
"-	c #9FCEFC",
";	c #A0CEFC",
">	c #73ABEF",
",	c #3071C8",
"'	c #3E7DD2",
")	c #91C3FB",
"!	c #9ECBFA",
"~	c #9ECCFA",
"{	c #3F7ED3",
"]	c #4281D6",
"^	c #8ABCF8",
"/	c #92C0F8",
"(	c #91C0F7",
"_	c #4382D6",
":	c #3F7FD5",
"<	c #7EB2F6",
"[	c #83B4F5",
"}	c #83B4F4",
"|	c #407FD5",
"1	c #3C7CD4",
"2	c #72A9F3",
"3	c #76AAF1",
"4	c #75AAF1",
"5	c #3C7DD5",
"6	c #3778D3",
"7	c #5F9CEC",
"8	c #609AEA",
"9	c #609AE9",
"0	c #3779D2",
"a	c #296FCC",
"b	c #2C7CD4",
"c	c #2676CE",
"d	c #2C7BD4",
"e	c #2970CC",
"f	c #3379C0",
"g	c #2D7CD7",
"h	c #2777D2",
"i	c #2677D2",
"j	c #2C7CD7",
"k	c #2970CD",
"l	c #445EB0",
"m	c #2D7FDD",
"n	c #277BD8",
"o	c #267BD8",
"p	c #2C7FDC",
"q	c #2971CE",
"r	c #2A78C2",
"s	c #2D83E2",
"t	c #277FDF",
"u	c #267FDE",
"v	c #2C83E2",
"w	c #2A72D0",
"x	c #2870CE",
"y	c #3188EA",
"z	c #2883E5",
"A	c #3088E9",
"B	c #2871CE",
"C	c #2267C5",
"D	c #3485E5",
"E	c #328BEE",
"F	c #2F8AED",
"G	c #2F8AEC",
"H	c #2369C6",
"I	c #2368C6",
"J	c #2971D0",
"K	c #2B75D3",
"L	c #2A75D3",
"M	c #2972D0",
"                ",
"  .+@@@#@@@@$%  ",
" &*=-;;-;;;-=>, ",
" ')!~~~~~~~~!){ ",
" ]^////(/////^_ ",
" :<[[[[}[[[[[<| ",
" 12333343333325 ",
" 67888898888870 ",
" abccccccccccde ",
" fghhhhihhhhhjk ",
" lmnnnnonnnnnpq ",
" rsttttutttttvw ",
" xyzzzzzzzzzzAB ",
" CDEFFFGFFFFEDH ",
"  IJKKKLKKKKMH  ",
"                "};
