/* XPM */
static char * WebHelp_xpm[] = {
"16 16 198 2",
"  	c None",
". 	c #4261BA",
"+ 	c #456BB1",
"@ 	c #456AB0",
"# 	c #425CB7",
"$ 	c #4475A8",
"% 	c #94C2EA",
"& 	c #3EAB90",
"* 	c #23993E",
"= 	c #33A238",
"- 	c #319F3F",
"; 	c #409573",
"> 	c #6077C5",
", 	c #3758B9",
"' 	c #3E8B80",
") 	c #1C9450",
"! 	c #3DA97D",
"~ 	c #42B1A0",
"{ 	c #3DAB82",
"] 	c #47AC39",
"^ 	c #40A839",
"/ 	c #31A98B",
"( 	c #50CBFF",
"_ 	c #78A4DE",
": 	c #2E3FA9",
"< 	c #3B8A7C",
"[ 	c #279B3C",
"} 	c #79D0E5",
"| 	c #1C9551",
"1 	c #33A375",
"2 	c #4AB39D",
"3 	c #2FA04A",
"4 	c #43B6B8",
"5 	c #3DC2FA",
"6 	c #26BCFF",
"7 	c #36C2FF",
"8 	c #78A2DD",
"9 	c #4174A5",
"0 	c #36A339",
"a 	c #40A939",
"b 	c #43AB76",
"c 	c #269A3A",
"d 	c #2FA053",
"e 	c #7AD2ED",
"f 	c #67CBE9",
"g 	c #52CAFF",
"h 	c #40C3FF",
"i 	c #3BBCE1",
"j 	c #32B5CA",
"k 	c #5BCCF3",
"l 	c #5F6EBE",
"m 	c #389267",
"n 	c #48AD3A",
"o 	c #43AA39",
"p 	c #2A9C51",
"q 	c #72C8CF",
"r 	c #73D3FE",
"s 	c #5FCEFE",
"t 	c #4AC8FF",
"u 	c #43BDDA",
"v 	c #0C8C3C",
"w 	c #2C9E43",
"x 	c #3E8F72",
"y 	c #4360BC",
"z 	c #1F953E",
"A 	c #46AC39",
"B 	c #3FA839",
"C 	c #5BB48C",
"D 	c #A6DFF9",
"E 	c #93DBFE",
"F 	c #7FD6FE",
"G 	c #BDEBFF",
"H 	c #B4E8FF",
"I 	c #A6D9C5",
"J 	c #A1D5B3",
"K 	c #9ED3AF",
"L 	c #279844",
"M 	c #3E44A8",
"N 	c #4F6AC0",
"O 	c #5CB698",
"P 	c #2E9E3D",
"Q 	c #3EA56D",
"R 	c #4CAB7F",
"S 	c #B8E4FA",
"T 	c #ABE1FE",
"U 	c #99DCFE",
"V 	c #CAEEFF",
"W 	c #448DD1",
"X 	c #265DBA",
"Y 	c #2250AE",
"Z 	c #215B9B",
"` 	c #267A92",
" .	c #AEDED7",
"..	c #5055AF",
"+.	c #4D66BE",
"@.	c #98DEFE",
"#.	c #69C1B9",
"$.	c #279A56",
"%.	c #7DC5B7",
"&.	c #B2E2F5",
"*.	c #ABE1FD",
"=.	c #D2F0FF",
"-.	c #3E73C7",
";.	c #2B4CBA",
">.	c #3D55C0",
",.	c #8696D5",
"'.	c #5575DE",
").	c #4A74DC",
"!.	c #26698F",
"~.	c #B7BADD",
"{.	c #344FB4",
"].	c #A1DFFB",
"^.	c #92D9F6",
"/.	c #35A168",
"(.	c #2E9E38",
"_.	c #ADDABF",
":.	c #5590CA",
"<.	c #2E4DBC",
"[.	c #72A1EB",
"}.	c #D3E2F8",
"|.	c #E6EEFA",
"1.	c #7EA8EC",
"2.	c #3D6DD5",
"3.	c #273EA0",
"4.	c #91BAE8",
"5.	c #73D1FB",
"6.	c #84D7FE",
"7.	c #3BA65B",
"8.	c #AEDBA8",
"9.	c #20579B",
"0.	c #3854C8",
"a.	c #548AE0",
"b.	c #6696E3",
"c.	c #8EB1EA",
"d.	c #E8F0FA",
"e.	c #709CE5",
"f.	c #2E61D2",
"g.	c #1743AC",
"h.	c #5B71C2",
"i.	c #82D3F7",
"j.	c #6CD0FD",
"k.	c #56B9A9",
"l.	c #3DA739",
"m.	c #AFDCA9",
"n.	c #2855AB",
"o.	c #4968DA",
"p.	c #4B7ED6",
"q.	c #5183D8",
"r.	c #BCCFF0",
"s.	c #B3C8ED",
"t.	c #4C7FD6",
"u.	c #1C52C3",
"v.	c #1648B0",
"w.	c #81A1DA",
"x.	c #68C7F2",
"y.	c #64CAE9",
"z.	c #309F39",
"A.	c #ADDBA8",
"B.	c #245EA0",
"C.	c #5377E6",
"D.	c #4173CC",
"E.	c #5883D2",
"F.	c #BDCEEC",
"G.	c #5F89D3",
"H.	c #4173CB",
"I.	c #184FBF",
"J.	c #1343AB",
"K.	c #2D3EA9",
"L.	c #7E9DD7",
"M.	c #53AD9D",
"N.	c #40A137",
"O.	c #A3D6BA",
"P.	c #3188CD",
"Q.	c #4975E0",
"R.	c #3C6BC3",
"S.	c #5C84CD",
"T.	c #BBCCEA",
"U.	c #567FCB",
"V.	c #3B6BC3",
"W.	c #1D53BF",
"X.	c #4461A1",
"Y.	c #488D82",
"Z.	c #81C7E4",
"`.	c #B8E3F6",
" +	c #3574C7",
".+	c #3567D3",
"++	c #3262C8",
"@+	c #93AAD8",
"#+	c #2557BD",
"$+	c #1D52BF",
"%+	c #1A48AE",
"&+	c #3036A2",
"*+	c #474CAC",
"=+	c #B7B8DF",
"-+	c #1F3599",
";+	c #1541A9",
">+	c #1647AF",
",+	c #1343AA",
"            . + @ #             ",
"        $ % & * = - ; >         ",
"    , ' ) ! ~ { ] ^ / ( _ :     ",
"    < [ } | 1 2 3 4 5 6 7 8     ",
"  9 0 a b c d e f g h i j k l   ",
"  m n n ] o p q r s t u v w x   ",
"y z A n B C D E F G H I J K L M ",
"N O P Q R S T U V W X Y Z `  ...",
"+.@.#.$.%.&.*.=.-.;.>.,.'.).!.~.",
"{.].F ^./.(._.:.<.[.}.|.}.1.2.3.",
"  4.5.6.7.n 8.9.0.a.b.c.d.e.f.g.",
"  h.i.j.k.l.m.n.o.p.q.r.s.t.u.v.",
"    w.x.y.z.A.B.C.D.E.F.G.H.I.J.",
"    K.L.M.N.O.P.Q.R.S.T.U.V.W.  ",
"        X.Y.Z.`. +.+++@+#+$+%+  ",
"            &+*+=+-+;+>+,+      "};
